# xmcd
#
# Track frame offsets: 
#        150
#        12669
#        26965
#        41193
#        57973
#        73534
#        88466
#        103717
#        120260
#        135049
#        147788
#        162093
#        178387
#        195204
#        210227
#        226536
#        241816
#        255734
#        269800
#        286820
#        302331
#
# Disc length: 4218 seconds
#
# Revision: 0
# Processed by: cddbd v1.5.2PL0 Copyright (c) Steve Scherf et al.
# Submitted via: ExactAudioCopy v0.99pb4
#
DISCID=20107815
DTITLE=Various Artist - Hits Van Hier 2016 - CD1
DYEAR=2016
DGENRE=Chanson
TTITLE0=Jo Vally - Puur
TTITLE1=John Terra - Welkom Rosie
TTITLE2=Michael Lanzo - Hoop In Mijn Hart
TTITLE3=Lissa Lewis - Jij Doet Me Leven
TTITLE4=Steve Tielens - The Show Must Go On
TTITLE5=Sasha and Davy - Ik Pas Gewoon Perfect Bij Jou
TTITLE6=Connie Neefs and Micha Marah - Supermedicijn
TTITLE7=Koen Crucke - Nooit Echt Zomer Zonder Jou
TTITLE8=Lisa Del Bo - Vier Azen Op Een Rij
TTITLE9=Sergio - Lekkere Jongen
TTITLE10=Rudy Meyns - La Dolce Vita
TTITLE11=Ive Rénaarts - Einde Van Ons Verhaal
TTITLE12=Davy Gilles and Maurice - Samen 100
TTITLE13=Sugarfree - We Gaan Ervoor
TTITLE14=Herbert - Topmoment
TTITLE15=Danny Fabry - Sweet Sweet Love
TTITLE16=Sammy Baker - Heel Mijn Leven
TTITLE17=DJ Fetti - Hoelapaloe
TTITLE18=Louis Flion - Zeg Mij Liefje
TTITLE19=Paul Severs and Dina Rodrigues - Ik Heb 'n Oogje Op Jou
TTITLE20=Barbara Dex - My Day
EXTD=
EXTT0=
EXTT1=
EXTT2=
EXTT3=
EXTT4=
EXTT5=
EXTT6=
EXTT7=
EXTT8=
EXTT9=
EXTT10=
EXTT11=
EXTT12=
EXTT13=
EXTT14=
EXTT15=
EXTT16=
EXTT17=
EXTT18=
EXTT19=
EXTT20=
PLAYORDER=
